<svg width="14" height="14" viewBox="0 0 14 14" fill="none" xmlns="http://www.w3.org/2000/svg">
<g clip-path="url(#clip0_2709_1753)">
<path d="M7 13.5C10.5899 13.5 13.5 10.5899 13.5 7C13.5 3.41015 10.5899 0.5 7 0.5C3.41015 0.5 0.5 3.41015 0.5 7C0.5 10.5899 3.41015 13.5 7 13.5Z" stroke="#000001" stroke-linecap="round" stroke-linejoin="round"/>
<path d="M7 0.5V13.5" stroke="#000001" stroke-linecap="round" stroke-linejoin="round"/>
<path d="M2.10001 11.27C2.83274 10.8239 3.43839 10.1968 3.8587 9.449C4.27902 8.70119 4.49986 7.85782 4.50001 6.99998C4.49986 6.14214 4.27902 5.29877 3.8587 4.55096C3.43839 3.80315 2.83274 3.17606 2.10001 2.72998" stroke="#000001" stroke-linecap="round" stroke-linejoin="round"/>
<path d="M11.9 2.72998C11.1675 3.17622 10.5622 3.80339 10.1421 4.55119C9.72201 5.29899 9.50137 6.14227 9.50137 6.99998C9.50137 7.85769 9.72201 8.70097 10.1421 9.44877C10.5622 10.1966 11.1675 10.8237 11.9 11.27" stroke="#000001" stroke-linecap="round" stroke-linejoin="round"/>
</g>
<defs>
<clipPath id="clip0_2709_1753">
<rect width="14" height="14" fill="white"/>
</clipPath>
</defs>
</svg>
