<svg width="14" height="14" viewBox="0 0 14 14" fill="none" xmlns="http://www.w3.org/2000/svg">
<g clip-path="url(#clip0_2709_1718)">
<path d="M2.13001 13.3801C2.95843 13.3801 3.63 12.7086 3.63 11.8801C3.63 11.0517 2.95843 10.3801 2.13001 10.3801C1.30158 10.3801 0.630005 11.0517 0.630005 11.8801C0.630005 12.7086 1.30158 13.3801 2.13001 13.3801Z" stroke="#000001" stroke-linecap="round" stroke-linejoin="round"/>
<path d="M13.38 12.1201C13.38 10.6099 13.0825 9.1145 12.5046 7.71926C11.9267 6.32401 11.0796 5.05626 10.0117 3.98839C8.94386 2.92052 7.67611 2.07343 6.28086 1.4955C4.88562 0.917574 3.39021 0.620117 1.88 0.620117" stroke="#000001" stroke-linecap="round" stroke-linejoin="round"/>
<path d="M2.12001 5.38013C2.9736 5.38013 3.81884 5.54825 4.60745 5.87491C5.39607 6.20157 6.11262 6.68035 6.7162 7.28393C7.31979 7.88751 7.79857 8.60407 8.12523 9.39268C8.45188 10.1813 8.62001 11.0265 8.62001 11.8801" stroke="#000001" stroke-linecap="round" stroke-linejoin="round"/>
</g>
<defs>
<clipPath id="clip0_2709_1718">
<rect width="14" height="14" fill="white"/>
</clipPath>
</defs>
</svg>
