<svg width="14" height="14" viewBox="0 0 14 14" fill="none" xmlns="http://www.w3.org/2000/svg">
<g clip-path="url(#clip0_2709_1729)">
<path d="M6.15 0.53004C6.08954 0.493924 6.02043 0.474854 5.95 0.474854C5.87957 0.474854 5.81046 0.493924 5.75 0.53004C5.70013 0.569554 5.66648 0.625984 5.65542 0.688644C5.64436 0.751303 5.65667 0.815843 5.69 0.87004C6.92 3.00004 7.18 5.90004 5.5 7.50004C4.85363 6.95686 4.34047 6.27265 4 5.50004C3.37873 5.84509 2.86385 6.35374 2.51127 6.97076C2.15868 7.58779 1.98186 8.28961 2 9.00004C2.02536 9.62632 2.17574 10.2412 2.44227 10.8085C2.70881 11.3758 3.08613 11.8841 3.55202 12.3034C4.01791 12.7227 4.56296 13.0445 5.15511 13.25C5.74725 13.4556 6.37452 13.5406 7 13.5C10.22 13.5 11.89 11.5 12 9.00004C12.13 6.00004 10 2.31004 6.15 0.53004Z" stroke="#000001" stroke-linecap="round" stroke-linejoin="round"/>
<path d="M9.5 9C9.5 9.53043 9.28929 10.0391 8.91421 10.4142C8.53914 10.7893 8.03043 11 7.5 11" stroke="#000001" stroke-linecap="round" stroke-linejoin="round"/>
</g>
<defs>
<clipPath id="clip0_2709_1729">
<rect width="14" height="14" fill="white"/>
</clipPath>
</defs>
</svg>
