<svg width="14" height="14" viewBox="0 0 14 14" fill="none" xmlns="http://www.w3.org/2000/svg">
<g clip-path="url(#clip0_2709_1745)">
<path d="M2 4H10C10.1326 4 10.2598 4.05268 10.3536 4.14645C10.4473 4.24021 10.5 4.36739 10.5 4.5V9C10.5 9.53043 10.2893 10.0391 9.91421 10.4142C9.53914 10.7893 9.03043 11 8.5 11H3.5C2.96957 11 2.46086 10.7893 2.08579 10.4142C1.71071 10.0391 1.5 9.53043 1.5 9V4.5C1.5 4.36739 1.55268 4.24021 1.64645 4.14645C1.74021 4.05268 1.86739 4 2 4V4Z" stroke="#000001" stroke-linecap="round" stroke-linejoin="round"/>
<path d="M0.5 13.5H13.5" stroke="#000001" stroke-linecap="round" stroke-linejoin="round"/>
<path d="M10.5 5H11.5C12.0304 5 12.5391 5.21071 12.9142 5.58579C13.2893 5.96086 13.5 6.46957 13.5 7C13.5 7.53043 13.2893 8.03914 12.9142 8.41421C12.5391 8.78929 12.0304 9 11.5 9H10.5" stroke="#000001" stroke-linecap="round" stroke-linejoin="round"/>
<path d="M3 0.5V1.5" stroke="#000001" stroke-linecap="round" stroke-linejoin="round"/>
<path d="M8 0.5V1.5" stroke="#000001" stroke-linecap="round" stroke-linejoin="round"/>
<path d="M5.5 0.5V1.5" stroke="#000001" stroke-linecap="round" stroke-linejoin="round"/>
</g>
<defs>
<clipPath id="clip0_2709_1745">
<rect width="14" height="14" fill="white"/>
</clipPath>
</defs>
</svg>
