<svg width="14" height="14" viewBox="0 0 14 14" fill="none" xmlns="http://www.w3.org/2000/svg">
<g clip-path="url(#clip0_2709_1740)">
<path d="M10 5V7C10 7.26522 10.1054 7.51957 10.2929 7.70711C10.4804 7.89464 10.7348 8 11 8H11.5C12.0304 8 12.5391 7.78929 12.9142 7.41421C13.2893 7.03914 13.5 6.53043 13.5 6V3C13.5 2.73478 13.3946 2.48043 13.2071 2.29289C13.0196 2.10536 12.7652 2 12.5 2H11C10.6835 1.9997 10.3717 1.9243 10.09 1.78C9.13524 1.28174 8.07685 1.01457 7 1C5.91637 1.01144 4.85077 1.2787 3.89 1.78C3.61351 1.91893 3.30938 1.99411 3 2H1.5C1.23478 2 0.98043 2.10536 0.792893 2.29289C0.605357 2.48043 0.5 2.73478 0.5 3V6C0.5 6.53043 0.710714 7.03914 1.08579 7.41421C1.46086 7.78929 1.96957 8 2.5 8H3C3.26522 8 3.51957 7.89464 3.70711 7.70711C3.89464 7.51957 4 7.26522 4 7V5" stroke="#000001" stroke-linecap="round" stroke-linejoin="round"/>
<path d="M11.5 8L11.19 9.57C10.9993 10.5412 10.4772 11.4159 9.71294 12.0447C8.94867 12.6735 7.9897 13.0173 7 13.0173C6.0103 13.0173 5.05133 12.6735 4.28706 12.0447C3.52279 11.4159 3.00068 10.5412 2.81 9.57L2.5 8" stroke="#000001" stroke-linecap="round" stroke-linejoin="round"/>
<path d="M6.5 10H7.5" stroke="#000001" stroke-linecap="round" stroke-linejoin="round"/>
</g>
<defs>
<clipPath id="clip0_2709_1740">
<rect width="14" height="14" fill="white"/>
</clipPath>
</defs>
</svg>
