<svg width="14" height="14" viewBox="0 0 14 14" fill="none" xmlns="http://www.w3.org/2000/svg">
<g clip-path="url(#clip0_2720_1710)">
<path d="M9.5 5C9.5 2.51472 7.48528 0.5 5 0.5C2.51472 0.5 0.5 2.51472 0.5 5C0.5 7.48528 2.51472 9.5 5 9.5C7.48528 9.5 9.5 7.48528 9.5 5Z" stroke="#16C47F" stroke-linecap="round" stroke-linejoin="round"/>
<path d="M3.66997 3.75006C3.485 3.87303 3.32965 4.03554 3.21514 4.22586C3.10063 4.41618 3.02981 4.62956 3.00781 4.85058C2.9858 5.0716 3.01315 5.29475 3.08789 5.50391C3.16263 5.71308 3.28288 5.90303 3.43997 6.06006" stroke="#16C47F" stroke-linecap="round" stroke-linejoin="round"/>
<path d="M13.5 13.5L8.42999 7.92" stroke="#16C47F" stroke-linecap="round" stroke-linejoin="round"/>
</g>
<defs>
<clipPath id="clip0_2720_1710">
<rect width="14" height="14" fill="white" transform="translate(0 14) rotate(-90)"/>
</clipPath>
</defs>
</svg>
